<svg xmlns="http://www.w3.org/2000/svg" width="233" height="90" viewBox="0 0 233 90">
    <defs>
        <linearGradient id="a" x1="50%" x2="50%" y1="-29.758%" y2="92.56%">
            <stop offset="0%" stop-color="#F36F60"/>
            <stop offset="29.27%" stop-color="#F15B4B"/>
            <stop offset="76.13%" stop-color="#ED2D28"/>
        </linearGradient>
        <linearGradient id="b" x1="50%" x2="50%" y1="-387.544%" y2="278.021%">
            <stop offset="42.56%" stop-color="#F36E59"/>
            <stop offset="78.46%" stop-color="#EC2626"/>
        </linearGradient>
        <linearGradient id="c" x1="50%" x2="50%" y1="-58.156%" y2="107.645%">
            <stop offset="24.97%" stop-color="#F36E59"/>
            <stop offset="74.59%" stop-color="#EC1C24"/>
        </linearGradient>
        <linearGradient id="d" x1="50%" x2="50%" y1="-58.067%" y2="107.734%">
            <stop offset="24.97%" stop-color="#F36E59"/>
            <stop offset="74.59%" stop-color="#EC1C24"/>
        </linearGradient>
        <linearGradient id="e" x1="50%" x2="50%" y1="-58.016%" y2="107.639%">
            <stop offset="24.97%" stop-color="#F36E59"/>
            <stop offset="74.59%" stop-color="#EC1C24"/>
        </linearGradient>
    </defs>
    <g fill="none" fill-rule="evenodd">
        <path fill="#FFF" fill-rule="nonzero" stroke="#000" stroke-width=".6" d="M210.246 56.71v7.482s-4.11.583-5.234-1.749c-.353-.745-1.51-5.732 3.629-5.732h20.134V38.607H209.09c-3.179 0-6.198.42-9.024 1.23-2.922.843-5.587 2.17-7.867 3.952a19.36 19.36 0 0 0-5.074 5.894V38.607H168.18v6.93l-5.492-6.93H113.908l-1.156 5.44-1.734-5.44H94.769l-1.83 6.704-2.12-6.704H71.552L75.79 52.63H59.124l14.932-20.5H45.701L37.512 44.5 29.42 32.13H1.064L21.713 60.5 1.064 88.87h28.388L37.544 76.5l8.189 12.371h28.355L59.606 68.985h18.529v-8.712l6.68 22.12h17.244l1.316-5.408 1.606 5.408h17.244l6.038-24.257v24.257h36.223v-6.93l5.49 6.93h17.117V70.928c.257.454.514.94.803 1.36 2.216 3.401 5.266 5.992 9.056 7.676 3.628 1.62 7.707 2.43 12.106 2.43h19.653v-25.65c.032-.033-18.465-.033-18.465-.033zM53.44 60.5l3.115-4.307v8.582L53.44 60.5z"/>
        <path fill="url(#a)" fill-rule="nonzero" d="M58.96.16L40.943 24.603l18.015 24.411H39.595L29.48 33.933l-9.988 15.081H.064L18.08 24.603.064.192h19.364l9.987 15.081L39.531.192h19.428z" transform="translate(8 35)"/>
        <path stroke="#000" stroke-width=".6" d="M66.96 35.16L48.943 59.603l18.015 24.411H47.595L37.48 68.933l-9.988 15.081H8.064L26.08 59.603 8.064 35.192h19.364l9.987 15.081 10.116-15.081h19.428z"/>
        <g opacity=".2">
            <path fill="#301111" fill-rule="nonzero" d="M66.96 35.16L48.943 59.603l18.015 24.411H47.595L37.48 68.933l-9.988 15.081H8.064L26.08 59.603 8.064 35.192h19.364l9.987 15.081 10.116-15.081h19.428z"/>
            <path stroke="#301111" stroke-width=".6" d="M66.96 35.16L48.943 59.603l18.015 24.411H47.595L37.48 68.933l-9.988 15.081H8.064L26.08 59.603 8.064 35.192h19.364l9.987 15.081 10.116-15.081h19.428z"/>
        </g>
        <path fill="url(#b)" fill-rule="nonzero" d="M.064 9.266V.288h14.419v8.978z" transform="translate(60.023 55.13)"/>
        <path stroke="#000" stroke-width=".6" d="M60.087 64.396v-8.979h14.419v8.979z"/>
        <g opacity=".2">
            <path fill="#301111" fill-rule="nonzero" d="M60.087 64.396v-8.979h14.419v8.979z"/>
            <path stroke="#301111" stroke-width=".6" d="M60.087 64.396v-8.979h14.419v8.979z"/>
        </g>
        <g fill-rule="nonzero" stroke-width=".6">
            <g stroke="#000">
                <path fill="url(#c)" d="M26.943 20.96L23.12 36.233H11.336L.289.192h11.785l4.978 15.592L21.355.192h10.854l5.042 15.592L40.623.192h11.785L43.32 36.233H31.535z" transform="translate(76.08 41.39)"/>
                <path fill="url(#d)" d="M55.748.16h11.785V36.2H55.748z" transform="translate(76.08 41.39)"/>
                <path fill="url(#e)" d="M73.024 36.233V.16H84.81L95.6 13.643V.16h11.785V36.2H95.6L84.81 22.718V36.2z" transform="translate(76.08 41.39)"/>
                <path fill="url(#c)" d="M137.668 25.498v-7.285h11.335v18.02h-16.056c-3.918 0-7.482-.703-10.661-2.076-3.18-1.374-5.684-3.483-7.515-6.263-1.83-2.78-2.762-6.199-2.762-10.225 0-2.843.546-5.368 1.638-7.572a15.013 15.013 0 0 1 4.56-5.528c1.927-1.47 4.175-2.556 6.68-3.29 2.504-.736 5.202-1.087 8.028-1.087h16.088v10.736h-11.335c-2.537 0-4.432.063-5.652.223-1.799.224-3.693.64-5.106 1.885-.578.512-1.092 1.15-1.349 1.886-.61 1.629-.706 3.514-.417 5.208.16.894.45 1.789.963 2.556.674.99 1.766 1.693 2.954 2.013 1.092.287 2.248.511 3.404.639 1.156.096 2.89.16 5.203.16z" transform="translate(76.08 41.39)"/>
            </g>
            <g fill="#301111" stroke="#301111" opacity=".2">
                <path d="M103.022 62.35L99.2 77.625H87.415L76.368 41.582h11.786l4.977 15.593 4.303-15.593h10.854l5.042 15.593 3.372-15.593h11.785L119.4 77.624h-11.785zM131.827 41.55h11.785v36.042h-11.785zM149.104 77.624V41.55h11.785l10.79 13.484V41.55h11.785v36.042H171.68l-10.79-13.484v13.484zM213.747 66.888v-7.285h11.335v18.02h-16.056c-3.918 0-7.482-.702-10.661-2.076-3.18-1.374-5.684-3.483-7.515-6.263-1.83-2.78-2.761-6.198-2.761-10.224 0-2.844.545-5.368 1.637-7.573a15.013 15.013 0 0 1 4.56-5.528c1.927-1.47 4.175-2.556 6.68-3.29 2.505-.735 5.202-1.087 8.028-1.087h16.088v10.736h-11.335c-2.537 0-4.432.064-5.652.224-1.798.223-3.693.639-5.106 1.885-.578.51-1.092 1.15-1.349 1.885-.61 1.63-.706 3.515-.417 5.208.16.895.45 1.79.963 2.556.674.99 1.766 1.694 2.954 2.013 1.092.288 2.248.511 3.404.64 1.156.095 2.89.159 5.203.159z"/>
            </g>
        </g>
        <g fill="#FFF" fill-rule="nonzero">
            <path d="M164.25.284c-.033-.095-.129-.19-.225-.19h-11.166c-.096 0-.192.095-.224.19 0 0-6.193 20.057-6.193 20.089 0 .094.096.189.193.189h7.38a.248.248 0 0 0 .128-.126l.866-2.713c.032-.063.096-.126.16-.126h6.802c.065 0 .129.063.16.126l.867 2.713c0 .063.064.126.129.126h7.283c.096 0 .192-.063.192-.19-.032-.031-6.352-20.088-6.352-20.088zm-4.107 11.763h-3.048c-.097 0-.193-.126-.193-.22 0-.032 1.636-5.173 1.636-5.173.065-.189.065-.189.097-.189s.032 0 .096.19c0 0 1.636 5.14 1.636 5.171-.032.095-.128.22-.224.22zM207.083 6.749h10.3V.126h-13.22c-1.25 0-2.983.63-3.978 1.356-.995.726-2.439 2.397-2.439 4.668 0 2.27 1.412 4.068 1.412 4.068.738.883 2.535 2.712 2.535 2.712a.239.239 0 0 1 .064.158c0 .126-.128.252-.257.252h-10.203c-1.251 0-1.315-.505-1.315-.568 0-.126.16-.189.16-.189.45-.22 1.412-.946 1.412-.946 2.021-1.545 2.246-3.658 2.246-4.794 0-1.135-.16-3.153-2.246-4.888C189.501.19 186.87.158 186.87.158h-14.535v20.34c0 .064.064.127.128.127h8.086v-5.708c0-.095.16 0 .16 0l4.203 4.163c1.508 1.482 3.979 1.545 3.979 1.545h15.946c2.727 0 4.236-1.45 4.653-1.86.417-.41 1.796-1.925 1.796-4.447 0-2.523-1.155-3.816-1.668-4.416-.45-.536-2.214-2.365-2.599-2.775a.239.239 0 0 1-.064-.157c0-.127.064-.19.128-.221zM185.33 8.483h-4.556s-.128-.031-.128-.157v-2.24c0-.126.128-.157.128-.157h4.171c.482 0 1.476.252 1.476 1.324 0 1.073-1.09 1.23-1.09 1.23zM142.72 20.562c.065 0 .097-.032.097-.095 0 0 6.256-20.215 6.256-20.246 0-.063-.032-.126-.096-.126h-7.733c-.032 0-.064.031-.064.063l-1.604 5.266c0 .032-.032.063-.064.063s-.064-.031-.064-.063L137.779.158c0-.032-.032-.063-.064-.063h-8.535c-.032 0-.032.031-.064.063 0 0-1.508 5.266-1.508 5.298 0 .031-.032.063-.064.063s-.064-.032-.064-.063L125.876.189c0-.031-.032-.063-.065-.063h-8.245c-.065 0-.129.063-.129.126v.032s6.353 20.183 6.353 20.215c.032.063.064.094.096.094h6.835c.032 0 .096-.063.096-.094l2.374-7.506c0-.032.032-.063.064-.063s.064.031.064.063l2.31 7.537c0 .032.065.063.097.063.128-.031 6.994-.031 6.994-.031z"/>
            <g>
                <path d="M32.412.095c-1.252 0-2.984.63-3.979 1.356-.995.725-2.439 2.396-2.439 4.667 0 2.27 1.412 4.068 1.412 4.068.738.883 2.535 2.744 2.535 2.744a.239.239 0 0 1 .064.158c0 .126-.128.252-.257.252h-16.62v7.222h19.99c2.727 0 4.235-1.45 4.652-1.86.417-.41 1.797-1.925 1.797-4.448 0-2.522-1.156-3.815-1.669-4.415-.45-.536-2.214-2.365-2.599-2.743a.239.239 0 0 1-.064-.158c0-.095.064-.158.128-.19h9.626v13.814H52.4V6.78h8.983V.126L32.412.095zM102.967 13.34c-1.251 0-1.316-.505-1.316-.568 0-.126.16-.189.16-.189.45-.22 1.413-.946 1.413-.946 2.02-1.545 2.245-3.658 2.245-4.794 0-1.135-.16-3.153-2.245-4.888C101.17.19 98.539.126 98.539.126H84.004v20.341c0 .063.065.126.129.126h8.085v-5.708c0-.094.16 0 .16 0l4.204 4.163c1.508 1.482 3.978 1.545 3.978 1.545h12.45V13.34h-10.043zm-6-4.857H92.41s-.129-.031-.129-.157v-2.24c0-.126.129-.157.129-.157h4.17c.482 0 1.477.252 1.477 1.324 0 1.073-1.091 1.23-1.091 1.23zM76.272.284c-.032-.095-.128-.19-.225-.19H64.882c-.097 0-.193.064-.225.19 0 0-6.16 20.057-6.16 20.089 0 .094.096.189.192.189h7.38a.248.248 0 0 0 .128-.126l.867-2.713c.032-.063.096-.126.16-.126h6.802c.064 0 .128.063.16.126l.867 2.713c0 .063.064.126.128.126h7.283c.097 0 .193-.063.193-.19-.032-.031-6.385-20.088-6.385-20.088zm-4.075 11.763H69.15c-.096 0-.192-.126-.192-.22 0-.032 1.636-5.173 1.636-5.173.064-.189.064-.189.096-.189 0 0 .032 0 .096.19 0 0 1.637 5.14 1.637 5.171-.064.095-.129.22-.225.22z"/>
            </g>
        </g>
        <path fill="#FFF" fill-rule="nonzero" d="M231.667 41v-1.695l.466 1.695h.2l.467-1.661V41h.2v-1.966h-.3l-.367 1.39a1.594 1.594 0 0 1-.1.305l-.066-.305-.367-1.39h-.333V41h.2zm-.934 0v-1.763h.534V39H230v.237h.533V41h.2zM212.681 21v-1.695l.462 1.695h.198l.461-1.661V21H214v-1.966h-.297l-.362 1.39a1.607 1.607 0 0 1-.1.305l-.065-.305-.363-1.39h-.33V21h.198zm-.956 0v-1.763h.528V19H211v.237h.527V21h.198z"/>
    </g>
</svg>
